<?xml version="1.0" encoding="utf-8"?>
<svg id="Layer_1" x="0px" y="0px" viewBox="0 0 2475 3525" preserveAspectRatio="none" xmlns="http://www.w3.org/2000/svg">
  <defs>
    <style id="bx-google-fonts">@import url(https://fonts.googleapis.com/css?family=Open+Sans:300,300italic,400,400italic,600,600italic,700,700italic,800,800italic);</style>
  </defs>
  <text x="259.346" y="1529.29" style="fill: rgb(229, 51, 42); font-family: &quot;Open Sans&quot;; font-size: 240px; font-weight: bold; white-space: pre;">UK Health Camp</text>
  <path d="M 1121.292 551.759 C 1179.395 527.293 1181.691 435.553 1155.697 388.15 C 1121.292 323.935 1034.138 334.635 975.269 351.455 C 991.329 304.818 1021.141 240.601 1075.423 231.427 C 1128.942 222.251 1181.691 255.13 1227.562 277.297 C 1268.842 296.409 1342.239 320.878 1372.054 268.123 C 1381.229 245.949 1354.47 227.604 1330.006 212.315 C 1306.303 197.022 1281.079 182.495 1255.082 173.324 C 1825.412 52.53 1840.705 1248.993 1237.498 1078.512 C 1193.925 1066.28 1151.875 1048.694 1111.353 1028.053 C 1167.929 1032.641 1228.324 1026.527 1273.434 989.826 C 1312.422 958.483 1332.297 893.497 1268.842 878.208 C 1211.504 864.446 1149.583 899.616 1093.006 904.202 C 1021.907 910.316 961.507 911.847 920.989 856.036 C 952.336 852.213 976.8 843.804 989.033 834.629 C 1010.439 819.339 1031.076 797.933 1032.607 770.407 C 1036.429 717.657 995.912 668.73 950.806 646.556 C 930.164 636.622 904.935 632.794 882.766 638.918 C 853.715 647.322 845.306 672.551 824.66 691.668 C 804.783 710.778 786.433 724.537 758.912 729.888 C 726.804 735.242 696.226 719.954 670.992 700.837 C 657.229 690.137 645.763 677.904 634.296 665.673 C 685.52 673.316 754.324 686.314 784.141 628.211 C 808.605 581.576 779.554 528.824 805.548 482.188 C 838.422 421.794 921.754 469.192 963.038 492.895 C 1010.439 520.416 1057.07 578.519 1121.292 551.759 Z M 1388.109 463.839 C 1375.876 463.839 1365.937 473.778 1365.937 486.011 L 1365.937 573.165 L 1278.787 573.165 C 1266.554 573.165 1256.613 583.106 1256.613 595.333 L 1256.613 661.085 C 1256.613 673.316 1266.554 683.257 1278.787 683.257 L 1365.937 683.257 L 1365.937 770.407 C 1365.937 782.645 1375.876 792.579 1388.109 792.579 L 1453.858 792.579 C 1466.088 792.579 1476.03 782.645 1476.03 770.407 L 1476.03 681.727 L 1563.183 681.727 C 1575.415 681.727 1585.355 671.785 1585.355 659.559 L 1585.355 593.807 C 1585.355 581.576 1575.415 571.635 1563.183 571.635 L 1475.264 571.635 L 1475.264 485.245 C 1475.264 473.013 1465.327 463.073 1453.097 463.073 L 1388.109 463.073 Z" style="fill-rule: evenodd; fill: rgb(229, 51, 42);"/>
  <g transform="matrix(1, 0, 0, 1, 0, 100)">
    <text x="524.806" y="1012.579" transform="matrix(1, 0, 0, 0.999999, -111.984383, 740.000916)" style="fill: rgb(229, 51, 42); font-family: &quot;Open Sans&quot;; font-size: 96.0001px; white-space: pre;">The free 'unconference' for everyone</text>
    <text x="129.059" y="489.179" transform="matrix(2.908272, 0, 0, 2.908275, -9.944188, 464.915741)" style="fill: rgb(229, 51, 42); font-family: &quot;Open Sans&quot;; font-size: 33.0093px; white-space: pre;">interested in digital, design, technology</text>
    <text x="129.059" y="489.179" transform="matrix(2.908272, 0, 0, 2.908275, 213.788345, 599.915771)" style="fill: rgb(229, 51, 42); font-family: &quot;Open Sans&quot;; font-size: 33.0093px; white-space: pre;">and data for health and care.</text>
  </g>
  <text x="164.964" y="511.087" transform="matrix(2.908272, 0, 0, 2.908269, -147.140823, 1061.335815)" style="fill: rgb(229, 51, 42); font-family: &quot;Open Sans&quot;; font-size: 44.0124px; font-weight: bold; white-space: pre;">September 30 2017 | London</text>
  <text x="129.059" y="489.179" transform="matrix(2.908272, 0, 0, 2.908275, 27.060131, 1325.042236)" style="fill: rgb(229, 51, 42); font-family: &quot;Open Sans&quot;; font-size: 44.0123px; white-space: pre;">#ukhc17 | @UKHealthCamp</text>
  <g transform="matrix(2.908272, 0, 0, 2.908272, -262.939148, 1463.378784)">
    <text x="129.059" y="489.179" transform="matrix(1, 0, 0, 1.000001, 146.783569, 130.973145)" style="fill: rgb(229, 51, 42); font-family: &quot;Open Sans&quot;; font-size: 33.0093px; white-space: pre;">Sign up at</text>
    <text x="129.059" y="489.179" transform="matrix(1, 0, 0, 1.000001, 308.199463, 131.296295)" style="fill: rgb(229, 51, 42); font-family: &quot;Open Sans&quot;; font-size: 33.0093px; font-weight: bold; white-space: pre;">ukhealthcamp.com</text>
  </g>
</svg>