<?xml version="1.0" encoding="utf-8"?>
<!-- Generator: Adobe Illustrator 18.0.0, SVG Export Plug-In . SVG Version: 6.00 Build 0)  -->
<!DOCTYPE svg PUBLIC "-//W3C//DTD SVG 1.1//EN" "http://www.w3.org/Graphics/SVG/1.1/DTD/svg11.dtd">
<svg version="1.1" id="Layer_1" xmlns="http://www.w3.org/2000/svg" xmlns:xlink="http://www.w3.org/1999/xlink" x="0px" y="0px"
	 viewBox="0 0 841.9 659.7" enable-background="new 0 0 841.9 659.7" xml:space="preserve">
<path fill="#010202" d="M405.7,50.7c7.6-3.2,7.9-15.2,4.5-21.4c-4.5-8.4-15.9-7-23.6-4.8c2.1-6.1,6-14.5,13.1-15.7
	c7-1.2,13.9,3.1,19.9,6c5.4,2.5,15,5.7,18.9-1.2c1.2-2.9-2.3-5.3-5.5-7.3c-3.1-2-6.4-3.9-9.8-5.1c74.6-15.8,76.6,140.7-2.3,118.4
	c-5.7-1.6-11.2-3.9-16.5-6.6c7.4,0.6,15.3-0.2,21.2-5c5.1-4.1,7.7-12.6-0.6-14.6c-7.5-1.8-15.6,2.8-23,3.4c-9.3,0.8-17.2,1-22.5-6.3
	c4.1-0.5,7.3-1.6,8.9-2.8c2.8-2,5.5-4.8,5.7-8.4c0.5-6.9-4.8-13.3-10.7-16.2c-2.7-1.3-6-1.8-8.9-1c-3.8,1.1-4.9,4.4-7.6,6.9
	c-2.6,2.5-5,4.3-8.6,5c-4.2,0.7-8.2-1.3-11.5-3.8c-1.8-1.4-3.3-3-4.8-4.6c6.7,1,15.7,2.7,19.6-4.9c3.2-6.1-0.6-13,2.8-19.1
	c4.3-7.9,15.2-1.7,20.6,1.4C391.2,46.6,397.3,54.2,405.7,50.7z M440.6,39.2c-1.6,0-2.9,1.3-2.9,2.9v11.4h-11.4
	c-1.6,0-2.9,1.3-2.9,2.9v8.6c0,1.6,1.3,2.9,2.9,2.9h11.4v11.4c0,1.6,1.3,2.9,2.9,2.9h8.6c1.6,0,2.9-1.3,2.9-2.9V67.7h11.4
	c1.6,0,2.9-1.3,2.9-2.9v-8.6c0-1.6-1.3-2.9-2.9-2.9H452V42c0-1.6-1.3-2.9-2.9-2.9H440.6z"/>
</svg>
